<mxfile host="app.diagrams.net" modified="2023-01-19T16:46:58.762Z" agent="5.0 (Macintosh; Intel Mac OS X 10_15_6) AppleWebKit/605.1.15 (KHTML, like Gecko) Version/14.0.3 Safari/605.1.15" etag="CF8yjuWe3I1BQp0GRiGM" version="20.8.6" type="github">
  <diagram name="Page-1" id="2a216829-ef6e-dabb-86c1-c78162f3ba2b">
    <mxGraphModel dx="3197" dy="1707" grid="1" gridSize="10" guides="1" tooltips="1" connect="1" arrows="1" fold="1" page="1" pageScale="1" pageWidth="850" pageHeight="1100" background="none" math="0" shadow="0">
      <root>
        <mxCell id="0" />
        <mxCell id="1" parent="0" />
        <mxCell id="ZlQ-SaAlC8NXr6iBDygl-1" value="Клиент" style="swimlane;horizontal=0;whiteSpace=wrap;html=1;" vertex="1" parent="1">
          <mxGeometry x="190" y="1010" width="2180" height="200" as="geometry" />
        </mxCell>
        <mxCell id="ZlQ-SaAlC8NXr6iBDygl-26" style="edgeStyle=orthogonalEdgeStyle;rounded=0;orthogonalLoop=1;jettySize=auto;html=1;exitX=0.5;exitY=0;exitDx=0;exitDy=0;exitPerimeter=0;entryX=0;entryY=0.5;entryDx=0;entryDy=0;entryPerimeter=0;" edge="1" parent="ZlQ-SaAlC8NXr6iBDygl-1" source="ZlQ-SaAlC8NXr6iBDygl-7" target="ZlQ-SaAlC8NXr6iBDygl-16">
          <mxGeometry relative="1" as="geometry">
            <Array as="points">
              <mxPoint x="1205" y="55" />
              <mxPoint x="1500" y="55" />
              <mxPoint x="1500" y="100" />
            </Array>
          </mxGeometry>
        </mxCell>
        <mxCell id="ZlQ-SaAlC8NXr6iBDygl-27" value="Нет" style="edgeLabel;html=1;align=center;verticalAlign=middle;resizable=0;points=[];" vertex="1" connectable="0" parent="ZlQ-SaAlC8NXr6iBDygl-26">
          <mxGeometry x="-0.0964" y="-3" relative="1" as="geometry">
            <mxPoint x="-1" as="offset" />
          </mxGeometry>
        </mxCell>
        <mxCell id="ZlQ-SaAlC8NXr6iBDygl-7" value="Требуется доработка?" style="points=[[0.25,0.25,0],[0.5,0,0],[0.75,0.25,0],[1,0.5,0],[0.75,0.75,0],[0.5,1,0],[0.25,0.75,0],[0,0.5,0]];shape=mxgraph.bpmn.gateway2;html=1;verticalLabelPosition=bottom;labelBackgroundColor=#ffffff;verticalAlign=top;align=center;perimeter=rhombusPerimeter;outlineConnect=0;outline=none;symbol=none;gwType=exclusive;" vertex="1" parent="ZlQ-SaAlC8NXr6iBDygl-1">
          <mxGeometry x="1180" y="75" width="50" height="50" as="geometry" />
        </mxCell>
        <mxCell id="ZlQ-SaAlC8NXr6iBDygl-25" value="Нет" style="edgeStyle=orthogonalEdgeStyle;rounded=0;orthogonalLoop=1;jettySize=auto;html=1;exitX=0.5;exitY=0;exitDx=0;exitDy=0;exitPerimeter=0;entryX=0.5;entryY=0;entryDx=0;entryDy=0;entryPerimeter=0;" edge="1" parent="ZlQ-SaAlC8NXr6iBDygl-1" source="ZlQ-SaAlC8NXr6iBDygl-16" target="ZlQ-SaAlC8NXr6iBDygl-23">
          <mxGeometry relative="1" as="geometry" />
        </mxCell>
        <mxCell id="ZlQ-SaAlC8NXr6iBDygl-16" value="Предложение удовлетворяет?" style="points=[[0.25,0.25,0],[0.5,0,0],[0.75,0.25,0],[1,0.5,0],[0.75,0.75,0],[0.5,1,0],[0.25,0.75,0],[0,0.5,0]];shape=mxgraph.bpmn.gateway2;html=1;verticalLabelPosition=bottom;labelBackgroundColor=#ffffff;verticalAlign=top;align=center;perimeter=rhombusPerimeter;outlineConnect=0;outline=none;symbol=none;gwType=exclusive;" vertex="1" parent="ZlQ-SaAlC8NXr6iBDygl-1">
          <mxGeometry x="1540" y="75" width="50" height="50" as="geometry" />
        </mxCell>
        <mxCell id="ZlQ-SaAlC8NXr6iBDygl-23" value="Завершение процесса" style="points=[[0.145,0.145,0],[0.5,0,0],[0.855,0.145,0],[1,0.5,0],[0.855,0.855,0],[0.5,1,0],[0.145,0.855,0],[0,0.5,0]];shape=mxgraph.bpmn.event;html=1;verticalLabelPosition=bottom;labelBackgroundColor=#ffffff;verticalAlign=top;align=center;perimeter=ellipsePerimeter;outlineConnect=0;aspect=fixed;outline=end;symbol=terminate2;" vertex="1" parent="ZlQ-SaAlC8NXr6iBDygl-1">
          <mxGeometry x="1960" y="90" width="50" height="50" as="geometry" />
        </mxCell>
        <mxCell id="ZlQ-SaAlC8NXr6iBDygl-2" value="Менеджер дилерского центра" style="swimlane;horizontal=0;whiteSpace=wrap;html=1;" vertex="1" parent="1">
          <mxGeometry x="190" y="1210" width="2180" height="230" as="geometry" />
        </mxCell>
        <mxCell id="ZlQ-SaAlC8NXr6iBDygl-3" value="Встреча клиента" style="points=[[0.145,0.145,0],[0.5,0,0],[0.855,0.145,0],[1,0.5,0],[0.855,0.855,0],[0.5,1,0],[0.145,0.855,0],[0,0.5,0]];shape=mxgraph.bpmn.event;html=1;verticalLabelPosition=bottom;labelBackgroundColor=#ffffff;verticalAlign=top;align=center;perimeter=ellipsePerimeter;outlineConnect=0;aspect=fixed;outline=standard;symbol=general;" vertex="1" parent="ZlQ-SaAlC8NXr6iBDygl-2">
          <mxGeometry x="120" y="40" width="50" height="50" as="geometry" />
        </mxCell>
        <mxCell id="ZlQ-SaAlC8NXr6iBDygl-46" style="edgeStyle=orthogonalEdgeStyle;rounded=0;orthogonalLoop=1;jettySize=auto;html=1;exitX=0;exitY=0.5;exitDx=0;exitDy=0;entryX=1;entryY=0.5;entryDx=0;entryDy=0;entryPerimeter=0;startArrow=classic;startFill=1;endArrow=none;endFill=0;" edge="1" parent="ZlQ-SaAlC8NXr6iBDygl-2" source="ZlQ-SaAlC8NXr6iBDygl-5" target="ZlQ-SaAlC8NXr6iBDygl-3">
          <mxGeometry relative="1" as="geometry" />
        </mxCell>
        <mxCell id="ZlQ-SaAlC8NXr6iBDygl-5" value="Получение запроса клиента" style="rounded=1;whiteSpace=wrap;html=1;" vertex="1" parent="ZlQ-SaAlC8NXr6iBDygl-2">
          <mxGeometry x="235" y="35" width="120" height="60" as="geometry" />
        </mxCell>
        <mxCell id="ZlQ-SaAlC8NXr6iBDygl-6" value="Предоставить меню продаж" style="rounded=1;whiteSpace=wrap;html=1;" vertex="1" parent="ZlQ-SaAlC8NXr6iBDygl-2">
          <mxGeometry x="980" y="35" width="120" height="60" as="geometry" />
        </mxCell>
        <mxCell id="ZlQ-SaAlC8NXr6iBDygl-38" style="edgeStyle=orthogonalEdgeStyle;rounded=0;orthogonalLoop=1;jettySize=auto;html=1;exitX=1;exitY=0.5;exitDx=0;exitDy=0;entryX=0;entryY=0.5;entryDx=0;entryDy=0;" edge="1" parent="ZlQ-SaAlC8NXr6iBDygl-2" source="ZlQ-SaAlC8NXr6iBDygl-8" target="ZlQ-SaAlC8NXr6iBDygl-6">
          <mxGeometry relative="1" as="geometry" />
        </mxCell>
        <mxCell id="ZlQ-SaAlC8NXr6iBDygl-44" style="edgeStyle=orthogonalEdgeStyle;rounded=0;orthogonalLoop=1;jettySize=auto;html=1;exitX=0;exitY=0.5;exitDx=0;exitDy=0;entryX=1;entryY=0.5;entryDx=0;entryDy=0;startArrow=classic;startFill=1;endArrow=none;endFill=0;" edge="1" parent="ZlQ-SaAlC8NXr6iBDygl-2" source="ZlQ-SaAlC8NXr6iBDygl-8" target="ZlQ-SaAlC8NXr6iBDygl-15">
          <mxGeometry relative="1" as="geometry" />
        </mxCell>
        <mxCell id="ZlQ-SaAlC8NXr6iBDygl-8" value="Ручная обработка информации о клиенте&lt;br&gt;(?) Возможно, заносится в информацию по сделке" style="rounded=1;whiteSpace=wrap;html=1;" vertex="1" parent="ZlQ-SaAlC8NXr6iBDygl-2">
          <mxGeometry x="650" y="36" width="180" height="60" as="geometry" />
        </mxCell>
        <mxCell id="ZlQ-SaAlC8NXr6iBDygl-35" style="edgeStyle=orthogonalEdgeStyle;rounded=0;orthogonalLoop=1;jettySize=auto;html=1;exitX=0.5;exitY=1;exitDx=0;exitDy=0;dashed=1;dashPattern=1 4;" edge="1" parent="ZlQ-SaAlC8NXr6iBDygl-2" source="ZlQ-SaAlC8NXr6iBDygl-14" target="ZlQ-SaAlC8NXr6iBDygl-32">
          <mxGeometry relative="1" as="geometry" />
        </mxCell>
        <mxCell id="ZlQ-SaAlC8NXr6iBDygl-14" value="Доработка &amp;nbsp;меню" style="rounded=1;whiteSpace=wrap;html=1;" vertex="1" parent="ZlQ-SaAlC8NXr6iBDygl-2">
          <mxGeometry x="1360" y="40" width="120" height="60" as="geometry" />
        </mxCell>
        <mxCell id="ZlQ-SaAlC8NXr6iBDygl-45" style="edgeStyle=orthogonalEdgeStyle;rounded=0;orthogonalLoop=1;jettySize=auto;html=1;exitX=0;exitY=0.5;exitDx=0;exitDy=0;entryX=1;entryY=0.5;entryDx=0;entryDy=0;startArrow=classic;startFill=1;endArrow=none;endFill=0;" edge="1" parent="ZlQ-SaAlC8NXr6iBDygl-2" source="ZlQ-SaAlC8NXr6iBDygl-15" target="ZlQ-SaAlC8NXr6iBDygl-5">
          <mxGeometry relative="1" as="geometry" />
        </mxCell>
        <mxCell id="ZlQ-SaAlC8NXr6iBDygl-15" value="Сбор информации о клиенте" style="rounded=1;whiteSpace=wrap;html=1;" vertex="1" parent="ZlQ-SaAlC8NXr6iBDygl-2">
          <mxGeometry x="440" y="35" width="120" height="60" as="geometry" />
        </mxCell>
        <mxCell id="ZlQ-SaAlC8NXr6iBDygl-24" style="edgeStyle=orthogonalEdgeStyle;rounded=0;orthogonalLoop=1;jettySize=auto;html=1;exitX=1;exitY=0.5;exitDx=0;exitDy=0;entryX=0;entryY=0.5;entryDx=0;entryDy=0;entryPerimeter=0;" edge="1" parent="ZlQ-SaAlC8NXr6iBDygl-2" source="ZlQ-SaAlC8NXr6iBDygl-18" target="ZlQ-SaAlC8NXr6iBDygl-22">
          <mxGeometry relative="1" as="geometry" />
        </mxCell>
        <mxCell id="ZlQ-SaAlC8NXr6iBDygl-18" value="Формирование сделки" style="rounded=1;whiteSpace=wrap;html=1;" vertex="1" parent="ZlQ-SaAlC8NXr6iBDygl-2">
          <mxGeometry x="1750" y="40" width="120" height="60" as="geometry" />
        </mxCell>
        <mxCell id="ZlQ-SaAlC8NXr6iBDygl-22" value="Сделка сформирована" style="points=[[0.145,0.145,0],[0.5,0,0],[0.855,0.145,0],[1,0.5,0],[0.855,0.855,0],[0.5,1,0],[0.145,0.855,0],[0,0.5,0]];shape=mxgraph.bpmn.event;html=1;verticalLabelPosition=bottom;labelBackgroundColor=#ffffff;verticalAlign=top;align=center;perimeter=ellipsePerimeter;outlineConnect=0;aspect=fixed;outline=end;symbol=terminate2;" vertex="1" parent="ZlQ-SaAlC8NXr6iBDygl-2">
          <mxGeometry x="1950" y="45" width="50" height="50" as="geometry" />
        </mxCell>
        <mxCell id="ZlQ-SaAlC8NXr6iBDygl-34" style="edgeStyle=orthogonalEdgeStyle;rounded=0;orthogonalLoop=1;jettySize=auto;html=1;entryX=1;entryY=0.5;entryDx=0;entryDy=0;dashed=1;dashPattern=1 4;" edge="1" parent="ZlQ-SaAlC8NXr6iBDygl-2" source="ZlQ-SaAlC8NXr6iBDygl-32" target="ZlQ-SaAlC8NXr6iBDygl-6">
          <mxGeometry relative="1" as="geometry" />
        </mxCell>
        <mxCell id="ZlQ-SaAlC8NXr6iBDygl-32" value="Новая версия меню продаж" style="sketch=0;pointerEvents=1;shadow=0;dashed=0;html=1;strokeColor=none;fillColor=#505050;labelPosition=center;verticalLabelPosition=bottom;verticalAlign=top;outlineConnect=0;align=center;shape=mxgraph.office.concepts.document;" vertex="1" parent="ZlQ-SaAlC8NXr6iBDygl-2">
          <mxGeometry x="1240" y="145" width="40" height="47" as="geometry" />
        </mxCell>
        <mxCell id="ZlQ-SaAlC8NXr6iBDygl-41" style="edgeStyle=orthogonalEdgeStyle;rounded=0;orthogonalLoop=1;jettySize=auto;html=1;entryX=0.5;entryY=1;entryDx=0;entryDy=0;dashed=1;dashPattern=1 4;startArrow=classic;startFill=1;endArrow=none;endFill=0;" edge="1" parent="ZlQ-SaAlC8NXr6iBDygl-2" source="ZlQ-SaAlC8NXr6iBDygl-37" target="ZlQ-SaAlC8NXr6iBDygl-8">
          <mxGeometry relative="1" as="geometry" />
        </mxCell>
        <mxCell id="ZlQ-SaAlC8NXr6iBDygl-42" style="edgeStyle=orthogonalEdgeStyle;rounded=0;orthogonalLoop=1;jettySize=auto;html=1;dashed=1;dashPattern=1 4;" edge="1" parent="ZlQ-SaAlC8NXr6iBDygl-2" source="ZlQ-SaAlC8NXr6iBDygl-37" target="ZlQ-SaAlC8NXr6iBDygl-6">
          <mxGeometry relative="1" as="geometry" />
        </mxCell>
        <mxCell id="ZlQ-SaAlC8NXr6iBDygl-37" value="Меню продаж" style="sketch=0;pointerEvents=1;shadow=0;dashed=0;html=1;strokeColor=none;fillColor=#505050;labelPosition=center;verticalLabelPosition=bottom;verticalAlign=top;outlineConnect=0;align=center;shape=mxgraph.office.concepts.document;" vertex="1" parent="ZlQ-SaAlC8NXr6iBDygl-2">
          <mxGeometry x="880" y="140" width="40" height="47" as="geometry" />
        </mxCell>
        <mxCell id="ZlQ-SaAlC8NXr6iBDygl-19" value="Да" style="edgeStyle=orthogonalEdgeStyle;rounded=0;orthogonalLoop=1;jettySize=auto;html=1;exitX=1;exitY=0.5;exitDx=0;exitDy=0;exitPerimeter=0;entryX=0;entryY=0.5;entryDx=0;entryDy=0;" edge="1" parent="1" source="ZlQ-SaAlC8NXr6iBDygl-16" target="ZlQ-SaAlC8NXr6iBDygl-18">
          <mxGeometry relative="1" as="geometry" />
        </mxCell>
        <mxCell id="ZlQ-SaAlC8NXr6iBDygl-28" value="Да" style="edgeStyle=orthogonalEdgeStyle;rounded=0;orthogonalLoop=1;jettySize=auto;html=1;exitX=1;exitY=0.5;exitDx=0;exitDy=0;exitPerimeter=0;entryX=0;entryY=0.5;entryDx=0;entryDy=0;" edge="1" parent="1" source="ZlQ-SaAlC8NXr6iBDygl-7" target="ZlQ-SaAlC8NXr6iBDygl-14">
          <mxGeometry relative="1" as="geometry" />
        </mxCell>
        <mxCell id="ZlQ-SaAlC8NXr6iBDygl-36" style="edgeStyle=orthogonalEdgeStyle;rounded=0;orthogonalLoop=1;jettySize=auto;html=1;exitX=0.5;exitY=0;exitDx=0;exitDy=0;entryX=0;entryY=0.5;entryDx=0;entryDy=0;entryPerimeter=0;" edge="1" parent="1" source="ZlQ-SaAlC8NXr6iBDygl-6" target="ZlQ-SaAlC8NXr6iBDygl-7">
          <mxGeometry relative="1" as="geometry" />
        </mxCell>
        <mxCell id="ZlQ-SaAlC8NXr6iBDygl-78" value="Клиент" style="swimlane;horizontal=0;whiteSpace=wrap;html=1;" vertex="1" parent="1">
          <mxGeometry x="210" y="1600" width="2490" height="200" as="geometry" />
        </mxCell>
        <mxCell id="ZlQ-SaAlC8NXr6iBDygl-158" value="Заполнение опросника" style="rounded=1;whiteSpace=wrap;html=1;" vertex="1" parent="ZlQ-SaAlC8NXr6iBDygl-78">
          <mxGeometry x="990" y="50" width="120" height="60" as="geometry" />
        </mxCell>
        <mxCell id="ZlQ-SaAlC8NXr6iBDygl-159" value="Заполненный опросник" style="sketch=0;pointerEvents=1;shadow=0;dashed=0;html=1;strokeColor=none;fillColor=#505050;labelPosition=center;verticalLabelPosition=bottom;verticalAlign=top;outlineConnect=0;align=center;shape=mxgraph.office.concepts.document;" vertex="1" parent="ZlQ-SaAlC8NXr6iBDygl-78">
          <mxGeometry x="1036" y="134" width="30" height="35" as="geometry" />
        </mxCell>
        <mxCell id="ZlQ-SaAlC8NXr6iBDygl-169" value="Требуется доработка?" style="points=[[0.25,0.25,0],[0.5,0,0],[0.75,0.25,0],[1,0.5,0],[0.75,0.75,0],[0.5,1,0],[0.25,0.75,0],[0,0.5,0]];shape=mxgraph.bpmn.gateway2;html=1;verticalLabelPosition=bottom;labelBackgroundColor=#ffffff;verticalAlign=top;align=center;perimeter=rhombusPerimeter;outlineConnect=0;outline=none;symbol=none;gwType=exclusive;" vertex="1" parent="ZlQ-SaAlC8NXr6iBDygl-78">
          <mxGeometry x="1760" y="84" width="50" height="50" as="geometry" />
        </mxCell>
        <mxCell id="ZlQ-SaAlC8NXr6iBDygl-211" style="edgeStyle=orthogonalEdgeStyle;rounded=0;orthogonalLoop=1;jettySize=auto;html=1;exitX=0;exitY=0.5;exitDx=0;exitDy=0;exitPerimeter=0;entryX=0.5;entryY=0;entryDx=0;entryDy=0;entryPerimeter=0;startArrow=classic;startFill=1;endArrow=none;endFill=0;" edge="1" parent="ZlQ-SaAlC8NXr6iBDygl-78" source="ZlQ-SaAlC8NXr6iBDygl-208" target="ZlQ-SaAlC8NXr6iBDygl-169">
          <mxGeometry relative="1" as="geometry">
            <Array as="points">
              <mxPoint x="1960" y="109" />
              <mxPoint x="1960" y="64" />
              <mxPoint x="1785" y="64" />
            </Array>
          </mxGeometry>
        </mxCell>
        <mxCell id="ZlQ-SaAlC8NXr6iBDygl-212" value="Нет" style="edgeLabel;html=1;align=center;verticalAlign=middle;resizable=0;points=[];" vertex="1" connectable="0" parent="ZlQ-SaAlC8NXr6iBDygl-211">
          <mxGeometry x="0.4296" y="1" relative="1" as="geometry">
            <mxPoint as="offset" />
          </mxGeometry>
        </mxCell>
        <mxCell id="ZlQ-SaAlC8NXr6iBDygl-208" value="Предложение удовлетворяет?" style="points=[[0.25,0.25,0],[0.5,0,0],[0.75,0.25,0],[1,0.5,0],[0.75,0.75,0],[0.5,1,0],[0.25,0.75,0],[0,0.5,0]];shape=mxgraph.bpmn.gateway2;html=1;verticalLabelPosition=bottom;labelBackgroundColor=#ffffff;verticalAlign=top;align=center;perimeter=rhombusPerimeter;outlineConnect=0;outline=none;symbol=none;gwType=exclusive;" vertex="1" parent="ZlQ-SaAlC8NXr6iBDygl-78">
          <mxGeometry x="2000" y="84" width="50" height="50" as="geometry" />
        </mxCell>
        <mxCell id="ZlQ-SaAlC8NXr6iBDygl-209" value="Завершение процесса" style="points=[[0.145,0.145,0],[0.5,0,0],[0.855,0.145,0],[1,0.5,0],[0.855,0.855,0],[0.5,1,0],[0.145,0.855,0],[0,0.5,0]];shape=mxgraph.bpmn.event;html=1;verticalLabelPosition=bottom;labelBackgroundColor=#ffffff;verticalAlign=top;align=center;perimeter=ellipsePerimeter;outlineConnect=0;aspect=fixed;outline=end;symbol=terminate2;" vertex="1" parent="ZlQ-SaAlC8NXr6iBDygl-78">
          <mxGeometry x="2390" y="110" width="50" height="50" as="geometry" />
        </mxCell>
        <mxCell id="ZlQ-SaAlC8NXr6iBDygl-207" value="Нет" style="edgeStyle=orthogonalEdgeStyle;rounded=0;orthogonalLoop=1;jettySize=auto;html=1;exitX=0.5;exitY=0;exitDx=0;exitDy=0;exitPerimeter=0;entryX=0.5;entryY=0;entryDx=0;entryDy=0;entryPerimeter=0;" edge="1" parent="ZlQ-SaAlC8NXr6iBDygl-78" source="ZlQ-SaAlC8NXr6iBDygl-208" target="ZlQ-SaAlC8NXr6iBDygl-209">
          <mxGeometry relative="1" as="geometry" />
        </mxCell>
        <mxCell id="ZlQ-SaAlC8NXr6iBDygl-85" value="Менеджер дилерского центра" style="swimlane;horizontal=0;whiteSpace=wrap;html=1;" vertex="1" parent="1">
          <mxGeometry x="210" y="1800" width="2490" height="230" as="geometry" />
        </mxCell>
        <mxCell id="ZlQ-SaAlC8NXr6iBDygl-86" value="Встреча клиента" style="points=[[0.145,0.145,0],[0.5,0,0],[0.855,0.145,0],[1,0.5,0],[0.855,0.855,0],[0.5,1,0],[0.145,0.855,0],[0,0.5,0]];shape=mxgraph.bpmn.event;html=1;verticalLabelPosition=bottom;labelBackgroundColor=#ffffff;verticalAlign=top;align=center;perimeter=ellipsePerimeter;outlineConnect=0;aspect=fixed;outline=standard;symbol=general;" vertex="1" parent="ZlQ-SaAlC8NXr6iBDygl-85">
          <mxGeometry x="120" y="60" width="50" height="50" as="geometry" />
        </mxCell>
        <mxCell id="ZlQ-SaAlC8NXr6iBDygl-87" style="edgeStyle=orthogonalEdgeStyle;rounded=0;orthogonalLoop=1;jettySize=auto;html=1;exitX=0;exitY=0.5;exitDx=0;exitDy=0;entryX=1;entryY=0.5;entryDx=0;entryDy=0;entryPerimeter=0;startArrow=classic;startFill=1;endArrow=none;endFill=0;" edge="1" parent="ZlQ-SaAlC8NXr6iBDygl-85" source="ZlQ-SaAlC8NXr6iBDygl-88" target="ZlQ-SaAlC8NXr6iBDygl-86">
          <mxGeometry relative="1" as="geometry" />
        </mxCell>
        <mxCell id="ZlQ-SaAlC8NXr6iBDygl-88" value="Получение запроса клиента" style="rounded=1;whiteSpace=wrap;html=1;" vertex="1" parent="ZlQ-SaAlC8NXr6iBDygl-85">
          <mxGeometry x="235" y="55" width="120" height="60" as="geometry" />
        </mxCell>
        <mxCell id="ZlQ-SaAlC8NXr6iBDygl-95" style="edgeStyle=orthogonalEdgeStyle;rounded=0;orthogonalLoop=1;jettySize=auto;html=1;exitX=0;exitY=0.5;exitDx=0;exitDy=0;entryX=1;entryY=0.5;entryDx=0;entryDy=0;startArrow=classic;startFill=1;endArrow=none;endFill=0;" edge="1" parent="ZlQ-SaAlC8NXr6iBDygl-85" source="ZlQ-SaAlC8NXr6iBDygl-96" target="ZlQ-SaAlC8NXr6iBDygl-88">
          <mxGeometry relative="1" as="geometry" />
        </mxCell>
        <mxCell id="ZlQ-SaAlC8NXr6iBDygl-96" value="Сбор информации о клиенте" style="rounded=1;whiteSpace=wrap;html=1;" vertex="1" parent="ZlQ-SaAlC8NXr6iBDygl-85">
          <mxGeometry x="420" y="55" width="120" height="60" as="geometry" />
        </mxCell>
        <mxCell id="ZlQ-SaAlC8NXr6iBDygl-151" value="Информация о сделке" style="sketch=0;pointerEvents=1;shadow=0;dashed=0;html=1;strokeColor=none;fillColor=#505050;labelPosition=center;verticalLabelPosition=bottom;verticalAlign=top;outlineConnect=0;align=center;shape=mxgraph.office.concepts.document;" vertex="1" parent="ZlQ-SaAlC8NXr6iBDygl-85">
          <mxGeometry x="460" y="150" width="30" height="35" as="geometry" />
        </mxCell>
        <mxCell id="ZlQ-SaAlC8NXr6iBDygl-225" style="edgeStyle=orthogonalEdgeStyle;rounded=0;orthogonalLoop=1;jettySize=auto;html=1;exitX=0.5;exitY=1;exitDx=0;exitDy=0;dashed=1;dashPattern=1 4;startArrow=classic;startFill=1;endArrow=none;endFill=0;" edge="1" parent="ZlQ-SaAlC8NXr6iBDygl-85" source="ZlQ-SaAlC8NXr6iBDygl-168" target="ZlQ-SaAlC8NXr6iBDygl-179">
          <mxGeometry relative="1" as="geometry">
            <Array as="points">
              <mxPoint x="1630" y="180" />
            </Array>
          </mxGeometry>
        </mxCell>
        <mxCell id="ZlQ-SaAlC8NXr6iBDygl-168" value="Предоставление меню продаж" style="rounded=1;whiteSpace=wrap;html=1;" vertex="1" parent="ZlQ-SaAlC8NXr6iBDygl-85">
          <mxGeometry x="1570" y="70" width="120" height="60" as="geometry" />
        </mxCell>
        <mxCell id="ZlQ-SaAlC8NXr6iBDygl-221" style="edgeStyle=orthogonalEdgeStyle;rounded=0;orthogonalLoop=1;jettySize=auto;html=1;exitX=1;exitY=0.5;exitDx=0;exitDy=0;dashed=1;dashPattern=1 4;startArrow=none;startFill=0;endArrow=classic;endFill=1;" edge="1" parent="ZlQ-SaAlC8NXr6iBDygl-85" source="ZlQ-SaAlC8NXr6iBDygl-178" target="ZlQ-SaAlC8NXr6iBDygl-179">
          <mxGeometry relative="1" as="geometry" />
        </mxCell>
        <mxCell id="ZlQ-SaAlC8NXr6iBDygl-223" style="edgeStyle=orthogonalEdgeStyle;rounded=0;orthogonalLoop=1;jettySize=auto;html=1;exitX=0.25;exitY=1;exitDx=0;exitDy=0;entryX=0.75;entryY=1;entryDx=0;entryDy=0;startArrow=none;startFill=0;endArrow=classic;endFill=1;" edge="1" parent="ZlQ-SaAlC8NXr6iBDygl-85" source="ZlQ-SaAlC8NXr6iBDygl-178" target="ZlQ-SaAlC8NXr6iBDygl-168">
          <mxGeometry relative="1" as="geometry" />
        </mxCell>
        <mxCell id="ZlQ-SaAlC8NXr6iBDygl-178" value="Доработка меню продаж" style="rounded=1;whiteSpace=wrap;html=1;" vertex="1" parent="ZlQ-SaAlC8NXr6iBDygl-85">
          <mxGeometry x="1900" y="70" width="120" height="60" as="geometry" />
        </mxCell>
        <mxCell id="ZlQ-SaAlC8NXr6iBDygl-179" value="Новая версия меню продаж" style="sketch=0;pointerEvents=1;shadow=0;dashed=0;html=1;strokeColor=none;fillColor=#505050;labelPosition=center;verticalLabelPosition=bottom;verticalAlign=top;outlineConnect=0;align=center;shape=mxgraph.office.concepts.document;" vertex="1" parent="ZlQ-SaAlC8NXr6iBDygl-85">
          <mxGeometry x="2040" y="160" width="30" height="35" as="geometry" />
        </mxCell>
        <mxCell id="ZlQ-SaAlC8NXr6iBDygl-200" value="Формирование сделки&lt;br&gt;(?) Нужно добавить, что сделка сохраняется в системе?&amp;nbsp;" style="rounded=1;whiteSpace=wrap;html=1;" vertex="1" parent="ZlQ-SaAlC8NXr6iBDygl-85">
          <mxGeometry x="2190" y="70" width="160" height="60" as="geometry" />
        </mxCell>
        <mxCell id="ZlQ-SaAlC8NXr6iBDygl-205" style="edgeStyle=orthogonalEdgeStyle;rounded=0;orthogonalLoop=1;jettySize=auto;html=1;exitX=0;exitY=0.5;exitDx=0;exitDy=0;exitPerimeter=0;entryX=1;entryY=0.5;entryDx=0;entryDy=0;startArrow=classic;startFill=1;endArrow=none;endFill=0;" edge="1" parent="ZlQ-SaAlC8NXr6iBDygl-85" source="ZlQ-SaAlC8NXr6iBDygl-202" target="ZlQ-SaAlC8NXr6iBDygl-200">
          <mxGeometry relative="1" as="geometry" />
        </mxCell>
        <mxCell id="ZlQ-SaAlC8NXr6iBDygl-202" value="Сделка сформирована" style="points=[[0.145,0.145,0],[0.5,0,0],[0.855,0.145,0],[1,0.5,0],[0.855,0.855,0],[0.5,1,0],[0.145,0.855,0],[0,0.5,0]];shape=mxgraph.bpmn.event;html=1;verticalLabelPosition=bottom;labelBackgroundColor=#ffffff;verticalAlign=top;align=center;perimeter=ellipsePerimeter;outlineConnect=0;aspect=fixed;outline=end;symbol=terminate2;" vertex="1" parent="ZlQ-SaAlC8NXr6iBDygl-85">
          <mxGeometry x="2390" y="74" width="50" height="50" as="geometry" />
        </mxCell>
        <mxCell id="ZlQ-SaAlC8NXr6iBDygl-109" value="Менеджер дилерского центра" style="swimlane;horizontal=0;whiteSpace=wrap;html=1;" vertex="1" parent="1">
          <mxGeometry x="210" y="2030" width="2490" height="230" as="geometry" />
        </mxCell>
        <mxCell id="ZlQ-SaAlC8NXr6iBDygl-150" value="Обработка информации" style="rounded=1;whiteSpace=wrap;html=1;" vertex="1" parent="ZlQ-SaAlC8NXr6iBDygl-109">
          <mxGeometry x="600" y="50" width="120" height="60" as="geometry" />
        </mxCell>
        <mxCell id="ZlQ-SaAlC8NXr6iBDygl-182" style="edgeStyle=orthogonalEdgeStyle;rounded=0;orthogonalLoop=1;jettySize=auto;html=1;exitX=0;exitY=0.5;exitDx=0;exitDy=0;entryX=1;entryY=0.5;entryDx=0;entryDy=0;startArrow=classic;startFill=1;endArrow=none;endFill=0;" edge="1" parent="ZlQ-SaAlC8NXr6iBDygl-109" source="ZlQ-SaAlC8NXr6iBDygl-152" target="ZlQ-SaAlC8NXr6iBDygl-150">
          <mxGeometry relative="1" as="geometry" />
        </mxCell>
        <mxCell id="ZlQ-SaAlC8NXr6iBDygl-152" value="Подбор формы опросника" style="rounded=1;whiteSpace=wrap;html=1;" vertex="1" parent="ZlQ-SaAlC8NXr6iBDygl-109">
          <mxGeometry x="790" y="50" width="120" height="60" as="geometry" />
        </mxCell>
        <mxCell id="ZlQ-SaAlC8NXr6iBDygl-153" value="Форма опросника" style="sketch=0;pointerEvents=1;shadow=0;dashed=0;html=1;strokeColor=none;fillColor=#505050;labelPosition=center;verticalLabelPosition=bottom;verticalAlign=top;outlineConnect=0;align=center;shape=mxgraph.office.concepts.document;" vertex="1" parent="ZlQ-SaAlC8NXr6iBDygl-109">
          <mxGeometry x="836" y="147" width="30" height="35" as="geometry" />
        </mxCell>
        <mxCell id="ZlQ-SaAlC8NXr6iBDygl-160" value="Обработка информации из опросника" style="rounded=1;whiteSpace=wrap;html=1;" vertex="1" parent="ZlQ-SaAlC8NXr6iBDygl-109">
          <mxGeometry x="1200" y="50" width="120" height="60" as="geometry" />
        </mxCell>
        <mxCell id="ZlQ-SaAlC8NXr6iBDygl-191" style="edgeStyle=orthogonalEdgeStyle;rounded=0;orthogonalLoop=1;jettySize=auto;html=1;exitX=0;exitY=0.5;exitDx=0;exitDy=0;entryX=1;entryY=0.5;entryDx=0;entryDy=0;startArrow=classic;startFill=1;endArrow=none;endFill=0;" edge="1" parent="ZlQ-SaAlC8NXr6iBDygl-109" source="ZlQ-SaAlC8NXr6iBDygl-166" target="ZlQ-SaAlC8NXr6iBDygl-160">
          <mxGeometry relative="1" as="geometry" />
        </mxCell>
        <mxCell id="ZlQ-SaAlC8NXr6iBDygl-218" style="edgeStyle=orthogonalEdgeStyle;rounded=0;orthogonalLoop=1;jettySize=auto;html=1;exitX=0.5;exitY=1;exitDx=0;exitDy=0;startArrow=none;startFill=0;endArrow=classic;endFill=1;dashed=1;dashPattern=1 4;" edge="1" parent="ZlQ-SaAlC8NXr6iBDygl-109" source="ZlQ-SaAlC8NXr6iBDygl-166" target="ZlQ-SaAlC8NXr6iBDygl-167">
          <mxGeometry relative="1" as="geometry" />
        </mxCell>
        <mxCell id="ZlQ-SaAlC8NXr6iBDygl-166" value="Формирование меню продаж" style="rounded=1;whiteSpace=wrap;html=1;" vertex="1" parent="ZlQ-SaAlC8NXr6iBDygl-109">
          <mxGeometry x="1400" y="50" width="120" height="60" as="geometry" />
        </mxCell>
        <mxCell id="ZlQ-SaAlC8NXr6iBDygl-167" value="Меню продаж" style="sketch=0;pointerEvents=1;shadow=0;dashed=0;html=1;strokeColor=none;fillColor=#505050;labelPosition=center;verticalLabelPosition=bottom;verticalAlign=top;outlineConnect=0;align=center;shape=mxgraph.office.concepts.document;" vertex="1" parent="ZlQ-SaAlC8NXr6iBDygl-109">
          <mxGeometry x="1445" y="158" width="30" height="35" as="geometry" />
        </mxCell>
        <mxCell id="ZlQ-SaAlC8NXr6iBDygl-181" style="edgeStyle=orthogonalEdgeStyle;rounded=0;orthogonalLoop=1;jettySize=auto;html=1;exitX=0;exitY=0.5;exitDx=0;exitDy=0;entryX=1;entryY=0.5;entryDx=0;entryDy=0;startArrow=classic;startFill=1;endArrow=none;endFill=0;" edge="1" parent="1" source="ZlQ-SaAlC8NXr6iBDygl-150" target="ZlQ-SaAlC8NXr6iBDygl-96">
          <mxGeometry relative="1" as="geometry" />
        </mxCell>
        <mxCell id="ZlQ-SaAlC8NXr6iBDygl-184" style="edgeStyle=orthogonalEdgeStyle;rounded=0;orthogonalLoop=1;jettySize=auto;html=1;exitX=0;exitY=0.5;exitDx=0;exitDy=0;entryX=1;entryY=0.5;entryDx=0;entryDy=0;startArrow=classic;startFill=1;endArrow=none;endFill=0;" edge="1" parent="1" source="ZlQ-SaAlC8NXr6iBDygl-158" target="ZlQ-SaAlC8NXr6iBDygl-152">
          <mxGeometry relative="1" as="geometry" />
        </mxCell>
        <mxCell id="ZlQ-SaAlC8NXr6iBDygl-189" style="edgeStyle=orthogonalEdgeStyle;rounded=0;orthogonalLoop=1;jettySize=auto;html=1;exitX=0;exitY=0.5;exitDx=0;exitDy=0;entryX=1;entryY=0.5;entryDx=0;entryDy=0;startArrow=classic;startFill=1;endArrow=none;endFill=0;" edge="1" parent="1" source="ZlQ-SaAlC8NXr6iBDygl-160" target="ZlQ-SaAlC8NXr6iBDygl-158">
          <mxGeometry relative="1" as="geometry" />
        </mxCell>
        <mxCell id="ZlQ-SaAlC8NXr6iBDygl-192" style="edgeStyle=orthogonalEdgeStyle;rounded=0;orthogonalLoop=1;jettySize=auto;html=1;exitX=0;exitY=0.5;exitDx=0;exitDy=0;entryX=1;entryY=0.5;entryDx=0;entryDy=0;startArrow=classic;startFill=1;endArrow=none;endFill=0;" edge="1" parent="1" source="ZlQ-SaAlC8NXr6iBDygl-168" target="ZlQ-SaAlC8NXr6iBDygl-166">
          <mxGeometry relative="1" as="geometry" />
        </mxCell>
        <mxCell id="ZlQ-SaAlC8NXr6iBDygl-194" style="edgeStyle=orthogonalEdgeStyle;rounded=0;orthogonalLoop=1;jettySize=auto;html=1;exitX=0;exitY=0.5;exitDx=0;exitDy=0;exitPerimeter=0;entryX=1;entryY=0.5;entryDx=0;entryDy=0;startArrow=classic;startFill=1;endArrow=none;endFill=0;" edge="1" parent="1" source="ZlQ-SaAlC8NXr6iBDygl-169" target="ZlQ-SaAlC8NXr6iBDygl-168">
          <mxGeometry relative="1" as="geometry">
            <Array as="points">
              <mxPoint x="1910" y="1709" />
              <mxPoint x="1910" y="1900" />
            </Array>
          </mxGeometry>
        </mxCell>
        <mxCell id="ZlQ-SaAlC8NXr6iBDygl-195" style="edgeStyle=orthogonalEdgeStyle;rounded=0;orthogonalLoop=1;jettySize=auto;html=1;exitX=0;exitY=0.5;exitDx=0;exitDy=0;entryX=1;entryY=0.5;entryDx=0;entryDy=0;entryPerimeter=0;startArrow=classic;startFill=1;endArrow=none;endFill=0;" edge="1" parent="1" source="ZlQ-SaAlC8NXr6iBDygl-178" target="ZlQ-SaAlC8NXr6iBDygl-169">
          <mxGeometry relative="1" as="geometry">
            <Array as="points">
              <mxPoint x="2070" y="1709" />
            </Array>
          </mxGeometry>
        </mxCell>
        <mxCell id="ZlQ-SaAlC8NXr6iBDygl-196" value="Да" style="edgeLabel;html=1;align=center;verticalAlign=middle;resizable=0;points=[];" vertex="1" connectable="0" parent="ZlQ-SaAlC8NXr6iBDygl-195">
          <mxGeometry x="0.2745" y="-3" relative="1" as="geometry">
            <mxPoint y="1" as="offset" />
          </mxGeometry>
        </mxCell>
        <mxCell id="ZlQ-SaAlC8NXr6iBDygl-214" style="edgeStyle=orthogonalEdgeStyle;rounded=0;orthogonalLoop=1;jettySize=auto;html=1;exitX=0;exitY=0.5;exitDx=0;exitDy=0;entryX=1;entryY=0.5;entryDx=0;entryDy=0;entryPerimeter=0;startArrow=classic;startFill=1;endArrow=none;endFill=0;" edge="1" parent="1" source="ZlQ-SaAlC8NXr6iBDygl-200" target="ZlQ-SaAlC8NXr6iBDygl-208">
          <mxGeometry relative="1" as="geometry" />
        </mxCell>
        <mxCell id="ZlQ-SaAlC8NXr6iBDygl-215" value="Да" style="edgeLabel;html=1;align=center;verticalAlign=middle;resizable=0;points=[];" vertex="1" connectable="0" parent="ZlQ-SaAlC8NXr6iBDygl-214">
          <mxGeometry x="0.2393" y="1" relative="1" as="geometry">
            <mxPoint as="offset" />
          </mxGeometry>
        </mxCell>
        <mxCell id="ZlQ-SaAlC8NXr6iBDygl-220" style="edgeStyle=orthogonalEdgeStyle;rounded=0;orthogonalLoop=1;jettySize=auto;html=1;exitX=0.25;exitY=1;exitDx=0;exitDy=0;dashed=1;dashPattern=1 4;startArrow=classic;startFill=1;endArrow=none;endFill=0;" edge="1" parent="1" source="ZlQ-SaAlC8NXr6iBDygl-168" target="ZlQ-SaAlC8NXr6iBDygl-167">
          <mxGeometry relative="1" as="geometry">
            <Array as="points">
              <mxPoint x="1810" y="2206" />
            </Array>
          </mxGeometry>
        </mxCell>
      </root>
    </mxGraphModel>
  </diagram>
</mxfile>
